PathFileType	4	(X/Y/Z)	Demo_SinglePerson_P1_0-412.trc
DataRate	CameraRate	NumFrames	NumMarkers	Units	OrigDataRate	OrigDataStartFrame	OrigNumFrames
29	29	5	22	m	29	206	412
Frame#	Time	Hip			RHip			RKnee			RAnkle			RBigToe			RSmallToe			RHeel			LHip			LKnee			LAnkle			LBigToe			LSmallToe			LHeel			Neck			Head			Nose			RShoulder			RElbow			RWrist			LShoulder			LElbow			LWrist			
		X1	Y1	Z1	X2	Y2	Z2	X3	Y3	Z3	X4	Y4	Z4	X5	Y5	Z5	X6	Y6	Z6	X7	Y7	Z7	X8	Y8	Z8	X9	Y9	Z9	X10	Y10	Z10	X11	Y11	Z11	X12	Y12	Z12	X13	Y13	Z13	X14	Y14	Z14	X15	Y15	Z15	X16	Y16	Z16	X17	Y17	Z17	X18	Y18	Z18	X19	Y19	Z19	X20	Y20	Z20	X21	Y21	Z21	X22	Y22	Z22	
206	7.103448275862069	3.792540719187881	-0.17602810121080692	-0.33007278150062275	3.9450811840321003	-0.36856954275568066	-0.6638624792252962	3.921822370074651	-1.6643988808659946	-0.8539947176577715	-78.01226224296636	59.44550667298549	30.17521657912133	-5.500612119357356	4.874851251028425	2.512232822460539	-7.5879444378533085	6.541970328223225	3.4634439031325575	-24.53958463410496	19.29535168305048	9.765316909873365	3.508372032226172	-0.08695405159334128	0.05984304786129639	1.925014462374166	-0.31584057398401894	0.3367857368519822	-0.9699781856114569	1.1820721851879807	0.9761109249026989	-0.3608683883336373	0.5234741234564262	1.013865474960288	-0.21687784056123813	0.45025689779597816	1.003537258365146	-1.5703032356291127	1.6193508059355004	1.1020289031948578	6.4567411287561765	1.3540500253348602	-1.345636223656025	7.362764648196916	2.476744459770638	-1.665752759761651	6.99958150068637	1.9847258962747736	-1.3914318929603549	6.18714016078927	0.80746603459662	-1.9343216336642899	5.974702235755214	-0.12280286785217284	-2.5150064317052947	6.402024402113439	0.5107662185018397	-2.689513305363701	6.021491434608473	1.0894628383030476	-0.536346208535323	5.081070556533053	0.5418784262088379	0.1907596023843841	5.913450406829248	1.0018232271531184	0.3594228093462603
207	7.137931034482759	3.758698003294022	-0.16182910646225537	-0.2823022611894429	3.881808223528316	-0.33907837122607354	-0.5909030547691893	3.384012276798043	-1.2844211925738946	-0.5606992452304356	-84.9167823218965	64.60509632304962	33.05875189537872	-4.365633618717354	3.9412316004592935	2.024453849452993	-5.87871983082271	5.186329736645256	2.690459984340469	-40.75379504226718	31.45781721502535	16.492269714113046	3.501057662288559	-0.09111660998291696	0.0552534393287563	1.889656133030139	-0.3074977947373919	0.3516904516772764	-1.198500614163285	1.3634561566953796	1.0283987638501166	-0.35012780827728834	0.5205755622444934	1.0082410722174595	-0.23347047342678073	0.4622490671098761	0.9966342365665523	-1.7233672280664425	1.7440954453365112	1.1391585501979054	6.50717058298828	1.4110050953948625	-1.3359998950274676	7.384114648607828	2.5141803408518872	-1.6201031197644964	7.002659221724228	1.998996799029911	-1.293727471093565	6.269135097300303	0.9143246687323682	-1.9279337525205693	5.913131653009673	-0.11203566765744395	-2.4305718702657226	6.354545121078783	0.6198622005441269	-2.5013458425136874	5.994179965314819	1.0658857099134404	-0.5564618096641215	5.061133500851172	0.5317978407202235	0.1745732990680688	5.9207235664236775	0.9989182596915118	0.4203758149152169
208	7.172413793103448	3.7202877210166263	-0.16024213765821632	-0.2505142480240012	3.831912190151038	-0.3371468131634933	-0.5534614896710668	3.0215676191367073	-1.0799039866149458	-0.3539493960135588	-45.19807651594863	34.8216812047409	17.54055312709343	-3.7513379054135583	3.414747204476836	1.7934496974796947	-4.764373756993565	4.277675932288133	2.200480143188782	-26.926465069233355	21.092459617979042	11.018361556021071	3.465604772604785	-0.09716217934707833	0.06809661749510383	1.8539477882848048	-0.32480848595054124	0.34426044740152867	-1.391578673535858	1.5148122188622741	1.0737161848273247	-0.37652214040000387	0.5357277117570085	1.0081085761325894	-0.26588009090558995	0.4830929179401269	0.9905169396999463	-1.8275936050114259	1.8301425979807804	1.165753746847414	6.494871519142258	1.402686994001401	-1.3135895243092408	7.394720305546672	2.533708568177554	-1.5769977499110004	7.02442623146926	2.034335822331704	-1.1963540015171084	6.320086700120863	0.9776158719890106	-1.929570957152388	5.835912188880176	-0.06922605383907768	-2.3065730642204123	6.2158028740172915	0.6451003042072956	-2.2225345787316817	5.995322188360464	1.0655484225148053	-0.5677579076455892	5.073264355617962	0.5371249238698685	0.15159757392146167	5.886403050733352	0.975354558697561	0.4331186847578043
209	7.206896551724138	3.7522318024610417	-0.13990045238361773	-0.24113863783569509	3.8112420002918785	-0.29551247876915443	-0.49593955814299806	2.419245633514237	-0.6673859592066212	-0.008642204925142307	-26.495489455415413	20.765445152767178	10.364852841888743	-3.137042192109763	2.888262808494378	1.5624455455063966	-4.000147463616971	3.619192888457793	1.902975766257272	-22.74000872240048	17.947498441582272	9.277365308645907	3.499158152810266	-0.0883703086300829	0.06365736485588826	1.936145155951971	-0.3424290817418996	0.3119685351621551	-1.4864978815417311	1.5861849685918614	1.0951347408205818	-0.40052193401327085	0.5559648769642972	0.9984335741445861	-0.3172578723784708	0.5195503689150825	0.9787732152743148	-1.873523037806318	1.866465403748283	1.1768907258555332	6.542273961251721	1.4532878067879906	-1.318245973757696	7.403343098427148	2.549557138580569	-1.5332140078757923	7.019587168011235	2.0336231856884903	-1.1021062288841579	6.329668757014009	1.0016717103678223	-1.9065677768430362	5.81133172478221	-0.030774244828414433	-2.249701882399326	6.109984372141255	0.6607520239036392	-2.007256640922307	6.033514090623851	1.0880020436820084	-0.6364721585391133	5.023980583377838	0.5111164539127577	0.10800420829553999	5.794863914815922	0.9185260703567449	0.43222613014396294
210	7.241379310344827	3.728120700214746	-0.13735196093904184	-0.21790592971391504	3.7652386416263126	-0.28760509033781756	-0.4546437747044319	2.298891883092488	-0.5693017396336049	0.07121925316451326	-18.04505312472373	14.38822008878433	7.015756201313699	-2.522746478805967	2.3617784125119208	1.3314413935330982	-3.2359211702403767	2.960709844627453	1.605471389325762	-12.307438393201616	10.075152331574765	5.110576704766155	3.4851538889892915	-0.10162397503026466	0.04214293301373748	2.0096343802710352	-0.3796255353193437	0.26579265261324986	-1.924879060793961	1.9400106976202265	1.2085383123167575	-0.37953092018233286	0.5533474334482182	0.9840275897168091	-0.2878802084445976	0.5079488445188829	0.9698882243127103	-1.9417850722022554	1.918626668518751	1.1926218466836467	6.554636650607818	1.4652386312318066	-1.3260058421831573	7.432312011018502	2.5964819501486454	-1.5115622208839148	7.069591000928041	2.098186343305475	-1.0259738422634708	6.31334231976619	0.9756336001004301	-1.9172762477569727	5.7739528332107755	0.0182708190754824	-2.166376402241152	6.080374191091359	0.7704968564806831	-1.7758830947057738	6.039121056368932	1.0903525692975569	-0.6539869503939436	5.047210056235935	0.5197096545776618	0.057825965822345726	5.764849940312032	0.9022081186283641	0.41602845547020323
